<svg width="203" height="35" viewBox="0 0 203 35" fill="none" xmlns="http://www.w3.org/2000/svg">
<path d="M19.6519 26.1284C19.6519 25.5571 19.564 25.0444 19.3882 24.5903C19.2271 24.1216 18.9194 23.6968 18.4653 23.3159C18.0112 22.9204 17.374 22.5322 16.5537 22.1514C15.7334 21.7705 14.6714 21.375 13.3677 20.9648C11.9175 20.4961 10.5405 19.9688 9.23682 19.3828C7.94775 18.7969 6.80518 18.1157 5.80908 17.3394C4.82764 16.5483 4.05127 15.6328 3.47998 14.5928C2.92334 13.5527 2.64502 12.3442 2.64502 10.9673C2.64502 9.63428 2.93799 8.42578 3.52393 7.3418C4.10986 6.24316 4.93018 5.30566 5.98486 4.5293C7.03955 3.73828 8.28467 3.13037 9.72021 2.70557C11.1704 2.28076 12.7598 2.06836 14.4883 2.06836C16.8467 2.06836 18.9048 2.49316 20.6626 3.34277C22.4204 4.19238 23.7827 5.35693 24.7495 6.83643C25.731 8.31592 26.2217 10.0078 26.2217 11.9121H19.6738C19.6738 10.9746 19.4761 10.1543 19.0806 9.45117C18.6997 8.7334 18.1138 8.16943 17.3228 7.75928C16.5464 7.34912 15.5649 7.14404 14.3784 7.14404C13.2358 7.14404 12.2837 7.31982 11.522 7.67139C10.7603 8.0083 10.189 8.46973 9.80811 9.05566C9.42725 9.62695 9.23682 10.2715 9.23682 10.9893C9.23682 11.5312 9.36865 12.022 9.63232 12.4614C9.91064 12.9009 10.3208 13.311 10.8628 13.6919C11.4048 14.0728 12.0713 14.4316 12.8623 14.7686C13.6533 15.1055 14.5688 15.4351 15.6089 15.7573C17.3521 16.2847 18.8828 16.8779 20.2012 17.5371C21.5342 18.1963 22.6475 18.936 23.541 19.7563C24.4346 20.5767 25.1084 21.5068 25.5625 22.5469C26.0166 23.5869 26.2437 24.7661 26.2437 26.0845C26.2437 27.4761 25.9727 28.7212 25.4307 29.8198C24.8887 30.9185 24.105 31.8486 23.0796 32.6104C22.0542 33.3721 20.8311 33.9507 19.4102 34.3462C17.9893 34.7417 16.3999 34.9395 14.6421 34.9395C13.0601 34.9395 11.5 34.7344 9.96191 34.3242C8.42383 33.8994 7.0249 33.2622 5.76514 32.4126C4.52002 31.563 3.52393 30.479 2.77686 29.1606C2.02979 27.8423 1.65625 26.2822 1.65625 24.4805H8.27002C8.27002 25.4766 8.42383 26.3188 8.73145 27.0073C9.03906 27.6958 9.47119 28.2524 10.0278 28.6772C10.5991 29.1021 11.2729 29.4097 12.0493 29.6001C12.8403 29.7905 13.7046 29.8857 14.6421 29.8857C15.7847 29.8857 16.7222 29.7246 17.4546 29.4023C18.2017 29.0801 18.751 28.6333 19.1025 28.062C19.4688 27.4907 19.6519 26.8462 19.6519 26.1284ZM37.0103 10.7256V34.5H30.6602V10.7256H37.0103ZM30.2646 4.5293C30.2646 3.60645 30.5869 2.84473 31.2314 2.24414C31.876 1.64355 32.7402 1.34326 33.8242 1.34326C34.8936 1.34326 35.7505 1.64355 36.395 2.24414C37.0542 2.84473 37.3838 3.60645 37.3838 4.5293C37.3838 5.45215 37.0542 6.21387 36.395 6.81445C35.7505 7.41504 34.8936 7.71533 33.8242 7.71533C32.7402 7.71533 31.876 7.41504 31.2314 6.81445C30.5869 6.21387 30.2646 5.45215 30.2646 4.5293ZM47.3374 10.7256L51.2705 17.9546L55.3135 10.7256H62.0591L55.3354 22.3491L62.3667 34.5H55.5991L51.3145 26.8535L47.0298 34.5H40.2622L47.2935 22.3491L40.5698 10.7256H47.3374Z" fill="white"/>
<path d="M84.0757 23.8872H90.6455C90.5137 26.0405 89.9204 27.9521 88.8657 29.6221C87.8257 31.292 86.3682 32.5957 84.4932 33.5332C82.6328 34.4707 80.3916 34.9395 77.7695 34.9395C75.7188 34.9395 73.8804 34.5879 72.2544 33.8848C70.6284 33.167 69.2368 32.1416 68.0796 30.8086C66.937 29.4756 66.0654 27.8643 65.4648 25.9746C64.8643 24.085 64.564 21.9683 64.564 19.6245V17.4053C64.564 15.0615 64.8716 12.9448 65.4868 11.0552C66.1167 9.15088 67.0103 7.53223 68.1675 6.19922C69.3394 4.86621 70.7383 3.84082 72.3643 3.12305C73.9902 2.40527 75.8066 2.04639 77.8135 2.04639C80.4795 2.04639 82.728 2.52979 84.5591 3.49658C86.4048 4.46338 87.833 5.79639 88.8438 7.49561C89.8691 9.19482 90.4844 11.1284 90.6895 13.2964H84.0977C84.0244 12.0073 83.7681 10.916 83.3286 10.0225C82.8892 9.11426 82.2227 8.43311 81.3291 7.979C80.4502 7.51025 79.2783 7.27588 77.8135 7.27588C76.7148 7.27588 75.7554 7.48096 74.9351 7.89111C74.1147 8.30127 73.4263 8.92383 72.8696 9.75879C72.313 10.5938 71.8955 11.6484 71.6172 12.9229C71.3535 14.1826 71.2217 15.6621 71.2217 17.3613V19.6245C71.2217 21.2798 71.3462 22.7373 71.5952 23.9971C71.8442 25.2422 72.2251 26.2969 72.7378 27.1611C73.2651 28.0107 73.939 28.6553 74.7593 29.0947C75.5942 29.5195 76.5977 29.7319 77.7695 29.7319C79.1465 29.7319 80.2817 29.5122 81.1753 29.0728C82.0688 28.6333 82.75 27.9814 83.2188 27.1172C83.7021 26.2529 83.9878 25.1763 84.0757 23.8872ZM101.258 10.7256V34.5H94.9082V10.7256H101.258ZM94.5127 4.5293C94.5127 3.60645 94.835 2.84473 95.4795 2.24414C96.124 1.64355 96.9883 1.34326 98.0723 1.34326C99.1416 1.34326 99.9985 1.64355 100.643 2.24414C101.302 2.84473 101.632 3.60645 101.632 4.5293C101.632 5.45215 101.302 6.21387 100.643 6.81445C99.9985 7.41504 99.1416 7.71533 98.0723 7.71533C96.9883 7.71533 96.124 7.41504 95.4795 6.81445C94.835 6.21387 94.5127 5.45215 94.5127 4.5293ZM112.816 15.9111V34.5H106.488V10.7256H112.442L112.816 15.9111ZM119.979 10.5718L119.869 16.4385C119.562 16.3945 119.188 16.3579 118.749 16.3286C118.324 16.2847 117.936 16.2627 117.584 16.2627C116.69 16.2627 115.914 16.3799 115.255 16.6143C114.61 16.834 114.068 17.1636 113.629 17.603C113.204 18.0425 112.882 18.5771 112.662 19.207C112.457 19.8369 112.34 20.5547 112.311 21.3604L111.036 20.9648C111.036 19.4268 111.19 18.0132 111.498 16.7241C111.805 15.4204 112.252 14.2852 112.838 13.3184C113.438 12.3516 114.171 11.6045 115.035 11.0771C115.899 10.5498 116.888 10.2861 118.001 10.2861C118.353 10.2861 118.712 10.3154 119.078 10.374C119.444 10.418 119.745 10.4839 119.979 10.5718ZM132.35 29.9956C133.126 29.9956 133.814 29.8491 134.415 29.5562C135.016 29.2485 135.484 28.8237 135.821 28.2817C136.173 27.7251 136.356 27.0732 136.371 26.3262H142.325C142.311 27.9961 141.864 29.4829 140.985 30.7866C140.106 32.0757 138.927 33.0938 137.447 33.8408C135.968 34.5732 134.312 34.9395 132.481 34.9395C130.636 34.9395 129.024 34.6318 127.647 34.0166C126.285 33.4014 125.15 32.5518 124.242 31.4678C123.333 30.3691 122.652 29.0947 122.198 27.6445C121.744 26.1797 121.517 24.6123 121.517 22.9424V22.3052C121.517 20.6206 121.744 19.0532 122.198 17.603C122.652 16.1382 123.333 14.8638 124.242 13.7798C125.15 12.6812 126.285 11.8242 127.647 11.209C129.01 10.5938 130.606 10.2861 132.438 10.2861C134.386 10.2861 136.092 10.6597 137.557 11.4067C139.037 12.1538 140.194 13.2231 141.029 14.6147C141.878 15.9917 142.311 17.625 142.325 19.5146H136.371C136.356 18.7236 136.188 18.0059 135.865 17.3613C135.558 16.7168 135.104 16.2041 134.503 15.8232C133.917 15.4277 133.192 15.23 132.328 15.23C131.405 15.23 130.65 15.4277 130.064 15.8232C129.479 16.2041 129.024 16.7314 128.702 17.4053C128.38 18.0645 128.153 18.8188 128.021 19.6685C127.904 20.5034 127.845 21.3823 127.845 22.3052V22.9424C127.845 23.8652 127.904 24.7515 128.021 25.6011C128.138 26.4507 128.358 27.2051 128.68 27.8643C129.017 28.5234 129.479 29.0435 130.064 29.4243C130.65 29.8052 131.412 29.9956 132.35 29.9956ZM152.674 0.75V34.5H146.324V0.75H152.674ZM168.846 34.9395C167 34.9395 165.345 34.6465 163.88 34.0605C162.416 33.46 161.17 32.6323 160.145 31.5776C159.134 30.5229 158.358 29.2998 157.816 27.9082C157.274 26.502 157.003 25.0078 157.003 23.4258V22.5469C157.003 20.7451 157.259 19.0972 157.772 17.603C158.285 16.1089 159.017 14.8125 159.969 13.7139C160.936 12.6152 162.108 11.7729 163.485 11.187C164.862 10.5864 166.415 10.2861 168.143 10.2861C169.828 10.2861 171.322 10.5645 172.625 11.1211C173.929 11.6777 175.021 12.4688 175.899 13.4941C176.793 14.5195 177.467 15.75 177.921 17.1855C178.375 18.6064 178.602 20.1885 178.602 21.9316V24.5684H159.706V20.3496H172.384V19.8662C172.384 18.9873 172.223 18.2036 171.9 17.5151C171.593 16.812 171.124 16.2554 170.494 15.8452C169.864 15.4351 169.059 15.23 168.077 15.23C167.242 15.23 166.524 15.4131 165.924 15.7793C165.323 16.1455 164.833 16.6582 164.452 17.3174C164.085 17.9766 163.807 18.7529 163.617 19.6465C163.441 20.5254 163.353 21.4922 163.353 22.5469V23.4258C163.353 24.3779 163.485 25.2568 163.749 26.0625C164.027 26.8682 164.415 27.564 164.913 28.1499C165.426 28.7358 166.041 29.1899 166.759 29.5122C167.491 29.8345 168.319 29.9956 169.242 29.9956C170.384 29.9956 171.446 29.7759 172.428 29.3364C173.424 28.8823 174.281 28.2012 174.999 27.293L178.075 30.6328C177.577 31.3506 176.896 32.0391 176.031 32.6982C175.182 33.3574 174.156 33.8994 172.955 34.3242C171.754 34.7344 170.384 34.9395 168.846 34.9395ZM195.06 27.9302C195.06 27.4761 194.928 27.0659 194.664 26.6997C194.4 26.3335 193.91 25.9966 193.192 25.689C192.489 25.3667 191.471 25.0737 190.138 24.8101C188.937 24.5464 187.816 24.2168 186.776 23.8213C185.75 23.4111 184.857 22.9204 184.095 22.3491C183.348 21.7778 182.762 21.104 182.337 20.3276C181.913 19.5366 181.7 18.6357 181.7 17.625C181.7 16.6289 181.913 15.6914 182.337 14.8125C182.777 13.9336 183.399 13.1572 184.205 12.4834C185.025 11.7949 186.021 11.2603 187.193 10.8794C188.38 10.4839 189.713 10.2861 191.192 10.2861C193.258 10.2861 195.03 10.6157 196.51 11.2749C198.004 11.9341 199.146 12.8423 199.938 13.9995C200.743 15.1421 201.146 16.4458 201.146 17.9106H194.818C194.818 17.2954 194.686 16.7461 194.422 16.2627C194.173 15.7646 193.778 15.3765 193.236 15.0981C192.708 14.8052 192.02 14.6587 191.17 14.6587C190.467 14.6587 189.859 14.7832 189.347 15.0322C188.834 15.2666 188.438 15.5889 188.16 15.999C187.896 16.3945 187.765 16.834 187.765 17.3174C187.765 17.6836 187.838 18.0132 187.984 18.3062C188.146 18.5845 188.402 18.8408 188.753 19.0752C189.105 19.3096 189.559 19.5293 190.116 19.7344C190.687 19.9248 191.39 20.1006 192.225 20.2617C193.939 20.6133 195.47 21.0747 196.817 21.646C198.165 22.2026 199.234 22.9644 200.025 23.9312C200.816 24.8833 201.212 26.1357 201.212 27.6885C201.212 28.7432 200.978 29.71 200.509 30.5889C200.04 31.4678 199.366 32.2368 198.487 32.896C197.608 33.5405 196.554 34.0459 195.323 34.4121C194.107 34.7637 192.738 34.9395 191.214 34.9395C189.002 34.9395 187.127 34.5439 185.589 33.7529C184.066 32.9619 182.909 31.9585 182.118 30.7427C181.341 29.5122 180.953 28.2524 180.953 26.9634H186.952C186.981 27.8276 187.201 28.5234 187.611 29.0508C188.036 29.5781 188.57 29.959 189.215 30.1934C189.874 30.4277 190.584 30.5449 191.346 30.5449C192.167 30.5449 192.848 30.4351 193.39 30.2153C193.932 29.981 194.342 29.6733 194.62 29.2925C194.913 28.897 195.06 28.4429 195.06 27.9302Z" fill="#256CFA"/>
</svg>
