<svg width="309" height="91" viewBox="0 0 309 91" fill="none" xmlns="http://www.w3.org/2000/svg">
<path d="M45.718 37.022C45.5646 35.4751 44.9063 34.2734 43.7429 33.4169C42.5795 32.5604 41.0007 32.1321 39.0064 32.1321C37.6513 32.1321 36.5071 32.3239 35.5739 32.7074C34.6406 33.0781 33.9247 33.5959 33.4261 34.2607C32.9403 34.9254 32.6974 35.6797 32.6974 36.5234C32.6719 37.2266 32.8189 37.8402 33.1385 38.3643C33.4709 38.8885 33.9247 39.3423 34.5 39.7259C35.0753 40.0966 35.7401 40.4226 36.4943 40.7038C37.2486 40.9723 38.054 41.2024 38.9105 41.3942L42.4389 42.2379C44.152 42.6214 45.7244 43.1328 47.1562 43.772C48.5881 44.4112 49.8281 45.1974 50.8764 46.1307C51.9247 47.0639 52.7365 48.1634 53.3118 49.429C53.8999 50.6946 54.2003 52.1456 54.2131 53.782C54.2003 56.1854 53.5866 58.2692 52.3722 60.0334C51.1705 61.7848 49.4318 63.1463 47.1562 64.1179C44.8935 65.0767 42.1641 65.5561 38.968 65.5561C35.7976 65.5561 33.0362 65.0703 30.6839 64.0987C28.3445 63.1271 26.5163 61.6889 25.1996 59.7841C23.8956 57.8665 23.2116 55.495 23.1477 52.6697H31.1825C31.272 53.9865 31.6491 55.0859 32.3139 55.968C32.9915 56.8374 33.8928 57.4957 35.0178 57.9432C36.1555 58.3778 37.4403 58.5952 38.8722 58.5952C40.2784 58.5952 41.4993 58.3906 42.5348 57.9815C43.5831 57.5724 44.3949 57.0036 44.9702 56.2749C45.5455 55.5462 45.8331 54.7088 45.8331 53.7628C45.8331 52.8807 45.571 52.1392 45.0469 51.5384C44.5355 50.9375 43.7813 50.4261 42.7841 50.0043C41.7997 49.5824 40.5916 49.1989 39.1598 48.8537L34.8835 47.7798C31.5724 46.9744 28.9581 45.7152 27.0405 44.0021C25.1229 42.2891 24.1705 39.9815 24.1832 37.0795C24.1705 34.7017 24.8033 32.6243 26.0817 30.8473C27.3729 29.0703 29.1435 27.6832 31.3935 26.6861C33.6435 25.6889 36.2003 25.1903 39.0639 25.1903C41.9787 25.1903 44.5227 25.6889 46.696 26.6861C48.8821 27.6832 50.5824 29.0703 51.7969 30.8473C53.0114 32.6243 53.6378 34.6825 53.6761 37.022H45.718ZM59.6447 65V35.5455H67.8137V65H59.6447ZM63.7484 31.7486C62.5339 31.7486 61.492 31.3459 60.6227 30.5405C59.7662 29.7223 59.3379 28.7443 59.3379 27.6065C59.3379 26.4815 59.7662 25.5163 60.6227 24.7109C61.492 23.8928 62.5339 23.4837 63.7484 23.4837C64.9629 23.4837 65.9984 23.8928 66.8549 24.7109C67.7243 25.5163 68.1589 26.4815 68.1589 27.6065C68.1589 28.7443 67.7243 29.7223 66.8549 30.5405C65.9984 31.3459 64.9629 31.7486 63.7484 31.7486ZM81.1843 35.5455L86.592 45.843L92.1339 35.5455H100.514L91.9805 50.2727L100.744 65H92.4023L86.592 54.8175L80.8775 65H72.44L81.1843 50.2727L72.7468 35.5455H81.1843ZM140.17 39.4766H131.771C131.618 38.3899 131.304 37.4247 130.831 36.581C130.358 35.7244 129.751 34.9957 129.01 34.3949C128.268 33.794 127.412 33.3338 126.44 33.0142C125.481 32.6946 124.439 32.5348 123.314 32.5348C121.282 32.5348 119.511 33.0398 118.002 34.0497C116.494 35.0469 115.324 36.5043 114.493 38.4219C113.662 40.3267 113.247 42.6406 113.247 45.3636C113.247 48.1634 113.662 50.5156 114.493 52.4205C115.337 54.3253 116.513 55.7635 118.022 56.7351C119.53 57.7067 121.275 58.1925 123.257 58.1925C124.369 58.1925 125.398 58.0455 126.344 57.7514C127.303 57.4574 128.153 57.0291 128.895 56.4666C129.636 55.8913 130.25 55.1946 130.735 54.3764C131.234 53.5582 131.579 52.625 131.771 51.5767L140.17 51.6151C139.953 53.4176 139.409 55.1562 138.54 56.831C137.684 58.4929 136.527 59.9822 135.069 61.299C133.625 62.603 131.899 63.6385 129.892 64.4055C127.897 65.1598 125.641 65.5369 123.123 65.5369C119.62 65.5369 116.488 64.7443 113.726 63.1591C110.978 61.5739 108.804 59.2791 107.206 56.2749C105.621 53.2706 104.828 49.6335 104.828 45.3636C104.828 41.081 105.634 37.4375 107.245 34.4332C108.855 31.429 111.042 29.1406 113.803 27.5682C116.564 25.983 119.671 25.1903 123.123 25.1903C125.398 25.1903 127.507 25.5099 129.451 26.1491C131.407 26.7884 133.139 27.7216 134.647 28.9489C136.156 30.1634 137.383 31.6527 138.329 33.4169C139.288 35.1811 139.902 37.201 140.17 39.4766ZM145.971 65V35.5455H154.14V65H145.971ZM150.075 31.7486C148.86 31.7486 147.818 31.3459 146.949 30.5405C146.092 29.7223 145.664 28.7443 145.664 27.6065C145.664 26.4815 146.092 25.5163 146.949 24.7109C147.818 23.8928 148.86 23.4837 150.075 23.4837C151.289 23.4837 152.325 23.8928 153.181 24.7109C154.05 25.5163 154.485 26.4815 154.485 27.6065C154.485 28.7443 154.05 29.7223 153.181 30.5405C152.325 31.3459 151.289 31.7486 150.075 31.7486ZM160.684 65V35.5455H168.604V40.6847H168.91C169.447 38.8565 170.349 37.4759 171.614 36.5426C172.88 35.5966 174.337 35.1236 175.986 35.1236C176.395 35.1236 176.836 35.1491 177.309 35.2003C177.782 35.2514 178.198 35.3217 178.556 35.4112V42.6598C178.172 42.5447 177.642 42.4425 176.964 42.353C176.287 42.2635 175.667 42.2188 175.104 42.2188C173.903 42.2188 172.829 42.4808 171.883 43.005C170.949 43.5163 170.208 44.2322 169.658 45.1527C169.121 46.0732 168.853 47.1342 168.853 48.3359V65H160.684ZM194.717 65.5753C191.7 65.5753 189.104 64.9361 186.931 63.6577C184.771 62.3665 183.109 60.5767 181.945 58.2884C180.795 56 180.219 53.3665 180.219 50.3878C180.219 47.3707 180.801 44.7244 181.964 42.4489C183.141 40.1605 184.809 38.3771 186.969 37.0987C189.13 35.8075 191.7 35.1619 194.678 35.1619C197.248 35.1619 199.498 35.6286 201.428 36.5618C203.359 37.495 204.886 38.8054 206.011 40.4929C207.136 42.1804 207.756 44.1619 207.871 46.4375H200.163C199.945 44.9673 199.37 43.7848 198.437 42.8899C197.516 41.9822 196.308 41.5284 194.812 41.5284C193.547 41.5284 192.441 41.8736 191.495 42.5639C190.562 43.2415 189.833 44.2322 189.309 45.5362C188.785 46.8402 188.523 48.419 188.523 50.2727C188.523 52.152 188.778 53.75 189.29 55.0668C189.814 56.3835 190.549 57.3871 191.495 58.0774C192.441 58.7678 193.547 59.1129 194.812 59.1129C195.746 59.1129 196.583 58.9212 197.325 58.5376C198.079 58.1541 198.699 57.598 199.185 56.8693C199.683 56.1278 200.009 55.2393 200.163 54.2038H207.871C207.744 56.4538 207.13 58.4354 206.031 60.1484C204.944 61.8487 203.442 63.1783 201.524 64.1371C199.607 65.0959 197.337 65.5753 194.717 65.5753ZM221.271 25.7273V65H213.102V25.7273H221.271ZM241.238 65.5753C238.208 65.5753 235.6 64.9616 233.414 63.7344C231.241 62.4943 229.566 60.7429 228.39 58.4801C227.214 56.2045 226.626 53.5135 226.626 50.407C226.626 47.3771 227.214 44.718 228.39 42.4297C229.566 40.1413 231.222 38.358 233.357 37.0795C235.504 35.8011 238.023 35.1619 240.912 35.1619C242.855 35.1619 244.664 35.4751 246.339 36.1016C248.026 36.7152 249.496 37.642 250.749 38.8821C252.015 40.1222 252.999 41.6818 253.702 43.5611C254.406 45.4276 254.757 47.6136 254.757 50.1193V52.3629H229.886V47.3004H247.067C247.067 46.1243 246.812 45.0824 246.3 44.1747C245.789 43.267 245.08 42.5575 244.172 42.0462C243.277 41.522 242.235 41.2599 241.046 41.2599C239.806 41.2599 238.707 41.5476 237.748 42.1229C236.802 42.6854 236.06 43.446 235.523 44.4048C234.987 45.3509 234.712 46.4055 234.699 47.5689V52.3821C234.699 53.8395 234.967 55.0987 235.504 56.1598C236.054 57.2209 236.827 58.0391 237.825 58.6143C238.822 59.1896 240.004 59.4773 241.372 59.4773C242.28 59.4773 243.111 59.3494 243.865 59.0938C244.619 58.8381 245.265 58.4545 245.802 57.9432C246.339 57.4318 246.748 56.8054 247.029 56.0639L254.585 56.5625C254.201 58.3778 253.415 59.9631 252.226 61.3182C251.05 62.6605 249.528 63.7088 247.662 64.4631C245.808 65.2045 243.667 65.5753 241.238 65.5753ZM284.595 43.9446L277.116 44.4048C276.989 43.7656 276.714 43.1903 276.292 42.679C275.87 42.1548 275.314 41.7393 274.624 41.4325C273.946 41.1129 273.134 40.9531 272.188 40.9531C270.923 40.9531 269.855 41.2216 268.986 41.7585C268.116 42.2827 267.682 42.9858 267.682 43.8679C267.682 44.571 267.963 45.1655 268.526 45.6513C269.088 46.1371 270.053 46.527 271.421 46.821L276.752 47.8949C279.616 48.483 281.751 49.429 283.157 50.733C284.563 52.0369 285.266 53.75 285.266 55.8722C285.266 57.8026 284.697 59.4964 283.56 60.9538C282.435 62.4112 280.888 63.549 278.919 64.3672C276.963 65.1726 274.707 65.5753 272.15 65.5753C268.251 65.5753 265.144 64.7635 262.83 63.1399C260.529 61.5036 259.18 59.2791 258.784 56.4666L266.819 56.0447C267.062 57.2337 267.65 58.1413 268.583 58.7678C269.516 59.3814 270.712 59.6882 272.169 59.6882C273.601 59.6882 274.751 59.4134 275.621 58.8636C276.503 58.3011 276.95 57.5788 276.963 56.6967C276.95 55.9553 276.637 55.348 276.023 54.875C275.41 54.3892 274.464 54.0185 273.185 53.7628L268.085 52.7464C265.208 52.1712 263.067 51.174 261.661 49.755C260.267 48.3359 259.57 46.527 259.57 44.3281C259.57 42.4361 260.082 40.8061 261.104 39.4382C262.14 38.0703 263.591 37.0156 265.457 36.2741C267.337 35.5327 269.536 35.1619 272.054 35.1619C275.774 35.1619 278.702 35.9482 280.837 37.5206C282.984 39.093 284.237 41.2344 284.595 43.9446Z" fill="white"/>
</svg>
